HIERARCHY
ROOT root
{
	OFFSET 0.000000 0.000000 0.000000
	CHANNELS 6 Xposition Yposition Zposition Zrotation Yrotation Xrotation
	JOINT lhip
	{
		OFFSET 0.058581 -0.082280 -0.017664
		CHANNELS 3 Zrotation Yrotation Xrotation
		JOINT lknee
		{
			OFFSET 0.043451 -0.386469 0.008037
			CHANNELS 3 Zrotation Yrotation Xrotation
			JOINT lankle
			{
				OFFSET -0.014790 -0.426874 -0.037428
				CHANNELS 3 Zrotation Yrotation Xrotation
				JOINT ltoe
				{
					OFFSET 0.041054 -0.060286 0.122042
					CHANNELS 3 Zrotation Yrotation Xrotation
					End Site
					{
						OFFSET 0.000000 0.000000 0.000000
					}
				}
			}
		}
	}
	JOINT rhip
	{
		OFFSET -0.060310 -0.090513 -0.013543
		CHANNELS 3 Zrotation Yrotation Xrotation
		JOINT rknee
		{
			OFFSET -0.043257 -0.383688 -0.004843
			CHANNELS 3 Zrotation Yrotation Xrotation
			JOINT rankle
			{
				OFFSET 0.019056 -0.420046 -0.034562
				CHANNELS 3 Zrotation Yrotation Xrotation
				JOINT rtoe
				{
					OFFSET -0.034840 -0.062106 0.130323
					CHANNELS 3 Zrotation Yrotation Xrotation
					End Site
					{
						OFFSET 0.000000 0.000000 0.000000
					}
				}
			}
		}
	}
	JOINT lowerback
	{
		OFFSET 0.004439 0.124404 -0.038385
		CHANNELS 3 Zrotation Yrotation Xrotation
		JOINT upperback
		{
			OFFSET 0.004488 0.137956 0.026820
			CHANNELS 3 Zrotation Yrotation Xrotation
			JOINT chest
			{
				OFFSET -0.002265 0.056032 0.002855
				CHANNELS 3 Zrotation Yrotation Xrotation
				JOINT lowerneck
				{
					OFFSET -0.013390 0.211636 -0.033468
					CHANNELS 3 Zrotation Yrotation Xrotation
					JOINT upperneck
					{
						OFFSET 0.010113 0.088937 0.050410
						CHANNELS 3 Zrotation Yrotation Xrotation
						End Site
						{
							OFFSET 0.000000 0.000000 0.000000
						}
					}
				}
				JOINT lclavicle
				{
					OFFSET 0.071702 0.114000 -0.018898
					CHANNELS 3 Zrotation Yrotation Xrotation
					JOINT lshoulder
					{
						OFFSET 0.122921 0.045205 -0.019046
						CHANNELS 3 Zrotation Yrotation Xrotation
						JOINT lelbow
						{
							OFFSET 0.255332 -0.015649 -0.022946
							CHANNELS 3 Zrotation Yrotation Xrotation
							JOINT lwrist
							{
								OFFSET 0.265709 0.012698 -0.007375
								CHANNELS 3 Zrotation Yrotation Xrotation
								End Site
								{
									OFFSET 0.000000 0.000000 0.000000
								}
							}
						}
					}
				}
				JOINT rclavicle
				{
					OFFSET -0.082954 0.112472 -0.023707
					CHANNELS 3 Zrotation Yrotation Xrotation
					JOINT rshoulder
					{
						OFFSET -0.113228 0.046853 -0.008472
						CHANNELS 3 Zrotation Yrotation Xrotation
						JOINT relbow
						{
							OFFSET -0.260127 -0.014369 -0.031269
							CHANNELS 3 Zrotation Yrotation Xrotation
							JOINT rwrist
							{
								OFFSET -0.269108 0.006794 -0.006027
								CHANNELS 3 Zrotation Yrotation Xrotation
								End Site
								{
									OFFSET 0.000000 0.000000 0.000000
								}
							}
						}
					}
				}
			}
		}
	}
}
MOTION
Frames: 17
Frame Time: 0.033333
2.340463 0.690424 0.998637 -79.198411 -0.883511 85.709500 -2.035582 -1.529008 2.632364 -0.522704 -12.135565 1.411763 1.501258 8.867609 -6.682450 0.000000 -0.000000 0.000000 -1.393188 -3.714101 0.541519 -2.814650 -3.011611 9.697968 0.917758 -11.047526 -12.009606 0.000000 -0.000000 0.000000 0.644513 2.528055 8.692994 -2.306529 -1.569387 3.700072 -0.621256 1.698080 -4.068024 -3.678316 26.925991 -9.166039 -2.715243 28.261497 -2.943549 -29.788083 -10.068477 1.261139 -50.644752 -4.483980 14.498735 -0.461131 -21.807057 11.234959 -4.205570 -7.615857 3.280158 26.254411 9.934269 9.142889 56.575217 2.808521 17.035972 -3.221698 27.235651 6.040678 3.447385 6.029470 0.619002 
2.340296 0.690542 0.998756 -79.374214 -0.720429 85.922623 -1.778784 -1.497049 2.352694 -0.742301 -12.019938 1.764351 0.888733 9.104641 -6.448670 0.000000 -0.000000 0.000000 -1.203576 -3.661366 0.289069 -2.792916 -3.089969 9.729523 0.799933 -10.926394 -11.900544 0.000000 -0.000000 0.000000 0.746545 2.457452 8.441896 -2.264140 -1.603486 3.856288 -0.644313 1.767595 -4.095039 -3.590557 26.932987 -9.038859 -2.879934 28.299760 -3.424192 -29.857787 -10.127169 1.293292 -50.668861 -4.468544 14.683625 -0.313762 -21.936193 11.081611 -3.980865 -7.479585 3.247239 26.208645 9.982176 9.116192 56.656021 2.799560 17.152493 -3.309279 27.274612 6.078824 3.446052 5.886773 0.417296 
2.339557 0.689877 0.998836 -79.508772 -0.831185 85.901956 -1.943574 -1.415735 2.514218 -0.722721 -11.961552 1.660344 1.025261 9.117202 -6.505625 0.000000 -0.000000 0.000000 -1.364546 -3.588394 0.420684 -2.820453 -3.050927 9.641355 0.837123 -10.915499 -11.851398 0.000000 -0.000000 0.000000 0.590811 2.437839 8.374470 -2.226700 -1.582653 4.055692 -0.612091 1.829142 -4.094053 -3.674909 26.780076 -8.988579 -2.921237 28.177682 -3.595583 -29.905717 -10.228506 1.408052 -50.618564 -4.617952 14.599360 -0.402796 -21.864635 10.961170 -4.655967 -7.508634 3.440787 26.204946 10.021790 9.136369 56.667143 2.693681 17.053142 -3.552113 27.454874 5.844648 3.686977 5.964772 0.443387 
2.338977 0.689626 0.998690 -79.642798 -0.804143 85.902127 -1.897308 -1.323025 2.559560 -0.778550 -11.998051 1.701739 0.789056 9.223132 -6.411795 0.000000 -0.000000 0.000000 -1.337896 -3.470740 0.463269 -2.843419 -3.085868 9.617888 0.825962 -10.909884 -11.763586 0.000000 -0.000000 0.000000 0.615462 2.422551 8.428382 -2.276207 -1.535195 4.125188 -0.601852 1.766442 -4.093106 -3.707036 26.982210 -8.980754 -2.919603 28.211408 -4.024405 -29.812525 -10.355457 1.495657 -50.667328 -4.636672 14.532691 -0.353629 -21.919676 11.006236 -4.748417 -7.475196 3.451280 26.182519 10.080957 9.173165 56.756658 2.805230 16.979080 -3.619841 27.292813 5.813523 3.716611 5.815670 0.348603 
2.338421 0.689695 0.998616 -79.726039 -0.700114 85.908668 -1.770199 -1.341818 2.539035 -0.765007 -11.825363 1.787712 0.946553 9.217426 -6.520400 0.000000 -0.000000 0.000000 -1.217968 -3.474976 0.529086 -2.786220 -2.995115 9.519176 0.930227 -10.759618 -11.825742 0.000000 -0.000000 0.000000 0.643577 2.427926 8.492128 -2.260474 -1.562680 4.192367 -0.525108 1.742515 -4.149082 -3.772701 27.166554 -9.179805 -2.898048 28.337575 -3.999888 -29.964482 -10.555082 1.691913 -50.625762 -4.602197 14.390994 -0.146430 -21.961377 10.801976 -4.874397 -7.332922 3.351606 26.317988 10.314929 9.348506 56.642347 2.703112 16.933862 -3.846979 27.406532 5.569655 3.763733 5.833359 0.091959 
2.337753 0.689332 0.998591 -79.703901 -0.716924 85.862374 -1.818844 -1.289145 2.611098 -0.760022 -11.844215 1.882154 0.873074 9.196429 -6.609621 0.000000 -0.000000 0.000000 -1.266311 -3.497994 0.654276 -2.835296 -2.996499 9.532974 0.931545 -10.855268 -11.934361 0.000000 -0.000000 0.000000 0.699210 2.330920 8.551287 -2.315224 -1.606280 4.318224 -0.584488 1.736529 -4.217199 -3.560000 26.976710 -9.149060 -2.955171 28.365411 -4.168367 -30.111417 -10.508180 1.661169 -50.434876 -4.622580 14.420191 -0.251900 -21.926195 11.030798 -4.599087 -7.324918 3.481561 26.255960 10.231517 9.287618 56.699586 2.806074 16.897204 -3.756709 27.453608 5.483542 3.685171 5.838987 -0.045030 
2.336731 0.689136 0.998466 -79.571724 -0.672279 85.889565 -1.784474 -1.353081 2.589174 -0.800022 -11.860665 2.040336 0.884113 9.114228 -6.783453 0.000000 -0.000000 0.000000 -1.168234 -3.524323 0.843288 -2.939623 -3.056148 9.295004 0.928265 -10.919563 -11.868954 0.000000 -0.000000 0.000000 0.647279 2.321389 8.404124 -2.243743 -1.672848 4.569742 -0.525979 1.713018 -4.299490 -3.526467 27.087713 -9.001467 -3.027402 28.367161 -4.464430 -30.103597 -10.504534 1.644010 -50.514765 -4.734650 14.376847 -0.277980 -21.952526 11.145858 -4.649650 -7.328964 3.526934 26.181717 10.241569 9.269539 56.781847 2.789320 16.807811 -3.858638 27.525826 5.383667 3.719386 5.865557 -0.102302 
2.336262 0.688814 0.998349 -79.756565 -0.674421 85.804033 -1.778046 -1.267395 2.594867 -0.882078 -11.753001 2.306785 0.943938 9.205025 -6.927506 0.000000 -0.000000 0.000000 -1.220073 -3.521150 0.858263 -2.921568 -3.069525 9.500383 0.890830 -10.830677 -11.902154 0.000000 -0.000000 0.000000 0.675834 2.294277 8.726490 -2.278285 -1.537496 4.227934 -0.497939 1.794931 -4.195755 -3.499762 27.211449 -9.087263 -2.957673 28.516480 -4.133139 -30.104251 -10.557622 1.676214 -50.539678 -4.712955 14.376642 -0.309133 -21.964911 11.290969 -4.733751 -7.242947 3.277150 26.202413 10.368117 9.273608 56.816969 2.653625 16.907006 -3.968716 27.458985 5.408258 3.913599 5.615981 -0.580861 
2.334802 0.688145 0.998428 -79.593779 -0.730619 85.968599 -1.842130 -1.306054 2.569271 -0.894703 -11.799597 2.229017 0.863131 8.982990 -6.950153 0.000000 -0.000000 0.000000 -1.415746 -3.684274 0.927001 -2.775473 -3.179257 9.288811 1.014670 -10.767225 -11.987752 0.000000 -0.000000 0.000000 0.598201 2.430892 8.339785 -2.202158 -1.631589 4.434945 -0.488021 1.651136 -4.265140 -3.387274 27.157879 -8.957827 -3.070195 28.478424 -4.126016 -30.194291 -10.396904 1.616381 -50.436139 -4.648168 14.432364 -0.535670 -22.022920 11.478052 -4.377828 -7.431972 3.528006 26.327609 10.146740 9.304170 56.624445 2.752449 16.864543 -3.787526 27.339327 5.390456 3.517181 5.850638 -0.068580 
2.334489 0.687861 0.998391 -79.605757 -0.759599 86.056235 -1.910868 -1.352589 2.434747 -0.882220 -11.691105 2.360541 0.984779 9.153086 -7.071253 0.000000 -0.000000 0.000000 -1.447199 -3.683652 0.808202 -2.786489 -3.118323 9.377179 1.089339 -10.751182 -12.001180 0.000000 -0.000000 0.000000 0.574809 2.535834 8.287265 -2.181241 -1.604810 4.712567 -0.518245 1.648656 -4.489969 -3.477955 27.175335 -9.162711 -2.913638 28.490955 -3.944399 -30.180847 -10.441441 1.561965 -50.480906 -4.696012 14.387092 -0.405755 -22.032446 11.186725 -4.466760 -7.309112 3.693413 26.401957 10.194941 9.372093 56.546167 2.750618 16.789497 -3.866330 27.433503 5.221388 3.422452 5.968909 0.178487 
2.333404 0.687481 0.998409 -79.346063 -0.680885 86.117671 -1.832105 -1.492494 2.390058 -0.945987 -11.887670 2.421566 0.889247 8.976358 -7.015478 0.000000 -0.000000 0.000000 -1.376376 -3.846016 0.950137 -2.812264 -3.232189 9.183274 1.150321 -10.815440 -11.951620 0.000000 -0.000000 0.000000 0.610711 2.686013 8.149187 -2.134654 -1.672253 4.630365 -0.434066 1.561648 -4.376239 -3.512490 27.090436 -9.055618 -2.931320 28.418886 -4.066444 -30.274491 -10.570192 1.773403 -50.460437 -4.706729 14.358498 -0.333134 -22.054774 11.115904 -4.403140 -7.442960 3.460862 26.315711 10.257159 9.472355 56.622102 2.554449 16.717141 -3.932960 27.436924 5.206489 3.686952 6.014717 -0.244112 
2.332601 0.686851 0.998459 -79.188414 -0.719495 86.221860 -1.868888 -1.478116 2.277304 -0.924971 -11.850063 2.465830 0.962900 9.022264 -7.098648 0.000000 -0.000000 0.000000 -1.431488 -3.863540 0.969191 -2.825863 -3.300040 9.066726 1.138775 -10.847157 -11.932041 0.000000 -0.000000 0.000000 0.495794 2.681707 7.981583 -2.078943 -1.709126 4.607389 -0.391056 1.589051 -4.312447 -3.546351 27.157284 -9.050134 -3.005779 28.404634 -4.146009 -30.091055 -10.434893 1.650233 -50.525080 -4.684400 14.535541 -0.590763 -22.069646 11.623251 -4.054239 -7.745988 3.855133 26.399549 10.122084 9.374737 56.481700 2.573790 16.688380 -3.866754 27.383085 5.364290 3.235769 6.383139 0.298532 
2.331862 0.686135 0.998562 -78.942890 -0.698859 86.171801 -1.910227 -1.588498 2.437118 -0.856695 -12.072968 2.302119 0.913204 8.957229 -7.045054 0.000000 -0.000000 0.000000 -1.439960 -3.922920 1.103574 -2.826131 -3.403136 9.073134 1.263717 -10.906901 -12.065034 0.000000 -0.000000 0.000000 0.500941 2.684361 7.876299 -2.063468 -1.805381 4.813191 -0.339108 1.547905 -4.201909 -3.664182 27.444366 -9.010154 -3.128072 28.419382 -4.462670 -29.842979 -10.430830 1.496597 -50.594893 -4.784592 14.263884 -0.765060 -22.242030 11.221177 -4.695303 -7.563991 3.668462 26.294531 10.264958 9.324568 56.496326 2.659380 16.614862 -3.877506 27.306787 5.256855 3.540667 6.216512 0.620523 
2.331098 0.685649 0.998570 -78.705811 -0.727429 86.231641 -1.967763 -1.656767 2.411934 -0.819951 -12.060192 2.273314 0.857678 8.929392 -7.006619 0.000000 -0.000000 0.000000 -1.478969 -3.989385 1.157763 -2.816007 -3.512732 9.017690 1.232915 -11.036281 -12.153491 0.000000 -0.000000 0.000000 0.499446 2.695812 7.669836 -2.080987 -1.786439 4.924885 -0.352240 1.483465 -4.107607 -3.601238 27.583071 -8.970692 -3.082616 28.268052 -4.503905 -29.675615 -10.402112 1.442125 -50.683298 -4.931821 14.088328 -0.769795 -22.112700 11.030519 -5.078665 -7.323600 3.379467 26.256913 10.241695 9.396497 56.551017 2.835648 16.622569 -3.915371 27.277627 5.231127 3.804160 5.959059 0.529272 
2.330734 0.685501 0.998481 -78.486000 -0.766567 86.192329 -2.000637 -1.684496 2.397128 -0.906350 -12.215763 2.392744 0.877528 8.844891 -7.093678 0.000000 -0.000000 0.000000 -1.457685 -3.901164 1.186575 -2.924975 -3.624820 9.165541 1.186255 -11.204990 -12.182754 0.000000 -0.000000 0.000000 0.424782 2.525627 7.835746 -2.072116 -1.707921 4.834766 -0.349152 1.553019 -4.086356 -3.609411 27.474816 -9.071674 -3.050184 28.266105 -4.403678 -29.771371 -10.480139 1.513586 -50.575072 -4.937448 14.127041 -0.712753 -22.040002 11.228347 -4.812991 -7.467962 3.427568 26.257022 10.323528 9.379256 56.613330 2.853737 16.620089 -3.913823 27.185805 5.218413 3.443535 6.035160 0.410989 
2.331162 0.685457 0.998335 -78.521204 -0.778566 86.238733 -2.076226 -1.712510 2.325393 -0.872202 -12.307875 2.397363 0.927553 8.917017 -7.037418 0.000000 -0.000000 0.000000 -1.464143 -3.757910 1.045135 -2.919246 -3.616860 9.280028 1.141577 -11.248123 -12.220199 0.000000 -0.000000 0.000000 0.551724 2.541971 8.138882 -2.148721 -1.524892 4.584261 -0.430796 1.635621 -4.096862 -3.695615 27.338363 -9.280349 -3.082482 28.316364 -4.327230 -29.882144 -10.499788 1.368524 -50.459253 -4.939231 14.229866 -0.753629 -21.969798 11.061785 -4.745684 -7.351257 3.361555 26.321699 10.218602 9.293176 56.562096 2.846643 16.661661 -3.860420 27.248942 5.225439 3.300172 5.799848 0.496609 
2.330683 0.685573 0.997901 -78.395099 -0.777635 86.270250 -2.081894 -1.655753 2.412472 -0.804222 -12.321141 2.184885 0.867709 8.943651 -7.006050 0.000000 -0.000000 0.000000 -1.460992 -3.732911 1.042414 -2.924763 -3.793997 9.335862 1.119670 -11.201472 -12.344903 0.000000 -0.000000 0.000000 0.650741 2.515666 8.232465 -2.263499 -1.392530 4.402790 -0.495246 1.615862 -4.114700 -3.663782 27.427625 -9.363602 -2.964687 28.353843 -3.997703 -29.940388 -10.544436 1.561931 -50.431138 -4.858876 14.310616 -0.593011 -22.016779 11.426171 -4.184926 -7.713586 3.383510 26.243513 10.224243 9.418821 56.825336 2.921886 16.623970 -3.959923 27.238034 5.243385 2.897935 5.872014 0.244754 
